<svg width="227" height="77" viewBox="0 0 227 77" fill="none" xmlns="http://www.w3.org/2000/svg">
<g filter="url(#filter0_d)">
<path d="M37.6406 0.375H37.6875C37.6875 0.4375 40.4844 6.17188 46.0781 17.5781C52.2344 30.1719 55.375 36.5938 55.5 36.8438C55.6875 37.1875 58.7188 43.4062 64.5938 55.5L71.2031 69H44.8594C44.8281 69 44.5469 68.4375 44.0156 67.3125C43.8281 66.9688 40.6719 60.5312 34.5469 48C28.6094 35.8438 25.3594 29.1875 24.7969 28.0312C24.7656 27.9688 24.6406 27.7344 24.4219 27.3281C30.8594 14.2031 34.2188 7.34375 34.5 6.75C34.5 6.75 35.25 5.21875 36.75 2.15625C37.3438 1 37.6406 0.40625 37.6406 0.375ZM37.6406 11.625C37.4531 12 34.8906 17.2344 29.9531 27.3281C36.9219 41.5781 40.4688 48.8438 40.5938 49.125L47.8594 63.9375C47.8906 64.0312 47.9219 64.0781 47.9531 64.0781H63.2812V64.0312C56.4062 49.9688 52.8281 42.6406 52.5469 42.0469C46.3594 29.4219 43.1094 22.7969 42.7969 22.1719L37.6406 11.625ZM20.6719 35.1094L28.4062 50.8594C28.7188 51.4844 31.6719 57.5312 37.2656 69H37.2188H4.125H4.07812C10.2344 56.375 13.4219 49.8594 13.6406 49.4531L20.3906 35.625C20.5469 35.2812 20.6406 35.1094 20.6719 35.1094ZM20.6719 46.3594L12.2344 63.6562C12.2031 63.6875 12.125 63.8281 12 64.0781H29.3438C23.5938 52.3281 20.7031 46.4219 20.6719 46.3594ZM100.842 6.216H76.6496V1.8H129.93V6.216H105.738V69H100.842V6.216ZM142.071 1.8H146.967V69H142.071V1.8ZM158.672 0.890625H165.281C165.375 0.984375 167.516 3.625 171.703 8.8125C179.266 18.1562 183.156 22.9844 183.375 23.2969C183.438 23.3281 185.953 26.4375 190.922 32.625H190.969C191.031 32.5625 194.125 28.7344 200.25 21.1406C202.219 18.7344 206.406 13.5781 212.812 5.67188L216.656 0.890625H222.938V0.9375L215.766 9.79688L200.203 29.0156L194.109 36.5156C202.766 47.1094 207.219 52.5938 207.469 52.9688C207.531 53 209.672 55.6094 213.891 60.7969L220.547 68.9531V69H161.344C161.562 68.6875 165.312 64.0781 172.594 55.1719C182.719 42.7656 187.781 36.5469 187.781 36.5156C180.344 27.4219 174.891 20.75 171.422 16.5L158.672 0.9375V0.890625ZM171.656 64.0781H210.234C200.109 51.6719 195 45.4062 194.906 45.2812L190.969 40.4062L177.516 56.8594L171.656 64.0781Z" fill="white"/>
</g>
<defs>
<filter id="filter0_d" x="0.078125" y="0.375" width="226.859" height="76.625" filterUnits="userSpaceOnUse" color-interpolation-filters="sRGB">
<feFlood flood-opacity="0" result="BackgroundImageFix"/>
<feColorMatrix in="SourceAlpha" type="matrix" values="0 0 0 0 0 0 0 0 0 0 0 0 0 0 0 0 0 0 127 0"/>
<feOffset dy="4"/>
<feGaussianBlur stdDeviation="2"/>
<feColorMatrix type="matrix" values="0 0 0 0 0 0 0 0 0 0 0 0 0 0 0 0 0 0 0.25 0"/>
<feBlend mode="normal" in2="BackgroundImageFix" result="effect1_dropShadow"/>
<feBlend mode="normal" in="SourceGraphic" in2="effect1_dropShadow" result="shape"/>
</filter>
</defs>
</svg>
