<svg width="223" height="77" viewBox="0 0 223 77" fill="none" xmlns="http://www.w3.org/2000/svg">
<g filter="url(#filter0_d)">
<path d="M37.9688 0.375H38.0156C38.0156 0.4375 40.8125 6.17188 46.4062 17.5781C52.5625 30.1719 55.7031 36.5938 55.8281 36.8438C56.0156 37.1875 59.0469 43.4062 64.9219 55.5L71.5312 69H45.1875C45.1562 69 44.875 68.4375 44.3438 67.3125C44.1562 66.9688 41 60.5312 34.875 48C28.9375 35.8438 25.6875 29.1875 25.125 28.0312C25.0938 27.9688 24.9688 27.7344 24.75 27.3281C31.1875 14.2031 34.5469 7.34375 34.8281 6.75C34.8281 6.75 35.5781 5.21875 37.0781 2.15625C37.6719 1 37.9688 0.40625 37.9688 0.375ZM37.9688 11.625C37.7812 12 35.2188 17.2344 30.2812 27.3281C37.25 41.5781 40.7969 48.8438 40.9219 49.125L48.1875 63.9375C48.2188 64.0312 48.25 64.0781 48.2812 64.0781H63.6094V64.0312C56.7344 49.9688 53.1562 42.6406 52.875 42.0469C46.6875 29.4219 43.4375 22.7969 43.125 22.1719L37.9688 11.625ZM21 35.1094L28.7344 50.8594C29.0469 51.4844 32 57.5312 37.5938 69H37.5469H4.45312H4.40625C10.5625 56.375 13.75 49.8594 13.9688 49.4531L20.7188 35.625C20.875 35.2812 20.9688 35.1094 21 35.1094ZM21 46.3594L12.5625 63.6562C12.5312 63.6875 12.4531 63.8281 12.3281 64.0781H29.6719C23.9219 52.3281 21.0312 46.4219 21 46.3594ZM101.17 6.216H76.9778V1.8H130.258V6.216H106.066V69H101.17V6.216ZM142.4 1.8H147.296V69H142.4V1.8ZM212.856 69L189.72 37.896L166.68 69H160.92L186.744 34.344L162.744 1.8H168.504L189.912 30.696L211.32 1.8H216.792L192.792 34.248L218.616 69H212.856Z" fill="white"/>
</g>
<defs>
<filter id="filter0_d" x="0.40625" y="0.375" width="222.21" height="76.625" filterUnits="userSpaceOnUse" color-interpolation-filters="sRGB">
<feFlood flood-opacity="0" result="BackgroundImageFix"/>
<feColorMatrix in="SourceAlpha" type="matrix" values="0 0 0 0 0 0 0 0 0 0 0 0 0 0 0 0 0 0 127 0"/>
<feOffset dy="4"/>
<feGaussianBlur stdDeviation="2"/>
<feColorMatrix type="matrix" values="0 0 0 0 0 0 0 0 0 0 0 0 0 0 0 0 0 0 0.25 0"/>
<feBlend mode="normal" in2="BackgroundImageFix" result="effect1_dropShadow"/>
<feBlend mode="normal" in="SourceGraphic" in2="effect1_dropShadow" result="shape"/>
</filter>
</defs>
</svg>
